<svg width="139" height="37" viewBox="0 0 139 37" fill="none" xmlns="http://www.w3.org/2000/svg">
<path d="M25.6992 19.418C26.0508 19.418 26.3763 19.6198 26.6758 20.0234C26.806 20.1797 26.8711 20.3164 26.8711 20.4336C26.8451 20.5508 26.7604 20.6159 26.6172 20.6289C23.7005 20.668 20.6016 21.5143 17.3203 23.168C15.1458 27.8815 13.043 31.4036 11.0117 33.7344C9.68359 35.2448 8.49219 36.0846 7.4375 36.2539C7.25521 36.2799 7.11849 36.293 7.02734 36.293C6.11589 36.293 5.40625 35.8828 4.89844 35.0625C4.58594 34.5547 4.42969 33.9883 4.42969 33.3633C4.44271 32.7773 4.57292 32.237 4.82031 31.7422C5.78385 29.8151 8.01042 27.569 11.5 25.0039C13.3229 23.6628 14.8268 22.6862 16.0117 22.0742C16.9102 20.2643 17.8281 17.9336 18.7656 15.082C19.9115 11.5794 20.4844 8.85156 20.4844 6.89844C20.4714 5.64844 20.2305 4.76302 19.7617 4.24219C19.1497 3.63021 18.1927 3.32422 16.8906 3.32422C15.862 3.32422 14.7357 3.5 13.5117 3.85156C10.8685 4.61979 8.51823 5.9349 6.46094 7.79688C4.0651 9.95833 2.69792 12.3411 2.35938 14.9453C2.30729 15.349 2.28125 15.7461 2.28125 16.1367C2.29427 17.7513 2.71745 19.3333 3.55078 20.8828C3.69401 21.1562 3.66146 21.3125 3.45312 21.3516C3.40104 21.3646 3.32943 21.3646 3.23828 21.3516C2.8737 21.2734 2.57422 21.0521 2.33984 20.6875C2.32682 20.6615 2.3138 20.6354 2.30078 20.6094C1.3763 18.8646 0.914062 17.1263 0.914062 15.3945C0.914062 12.556 2.04036 9.9388 4.29297 7.54297C6.25911 5.44661 8.6875 3.91016 11.5781 2.93359C11.8646 2.84245 12.138 2.75781 12.3984 2.67969C13.5833 2.34115 14.7096 2.17188 15.7773 2.17188C17.8477 2.1849 19.4557 2.78385 20.6016 3.96875C21.4089 4.84115 21.8125 6.20182 21.8125 8.05078C21.8125 10.9154 20.9466 14.5482 19.2148 18.9492C18.9154 19.7174 18.6224 20.4076 18.3359 21.0195C21.0052 19.9518 23.4596 19.418 25.6992 19.418ZM14.7031 24.6328C12.3854 26.0911 10.3737 27.7188 8.66797 29.5156C7.43099 30.8177 6.57161 32.0221 6.08984 33.1289C5.88151 33.6237 5.77734 34.0469 5.77734 34.3984C5.77734 34.6198 5.8099 34.776 5.875 34.8672C5.96615 34.9844 6.08984 35.043 6.24609 35.043C6.70182 35.043 7.30078 34.776 8.04297 34.2422C8.14714 34.1641 8.22526 34.099 8.27734 34.0469C9.78776 32.6276 11.5781 30.1276 13.6484 26.5469C14.013 25.9089 14.3646 25.2708 14.7031 24.6328ZM27.7891 18.7539C28.0885 19.0143 28.2448 19.2161 28.2578 19.3594C28.2578 19.4505 28.1341 19.5547 27.8867 19.6719C27.7435 19.737 27.6458 19.7891 27.5938 19.8281C27.8021 20.5182 28.401 20.974 29.3906 21.1953C29.9115 20.2578 30.1719 19.4375 30.1719 18.7344C30.1719 18.4609 30.1263 18.2461 30.0352 18.0898C29.9961 18.0508 29.918 18.0312 29.8008 18.0312C29.2148 18.0312 28.668 18.168 28.1602 18.4414C27.9909 18.5456 27.8672 18.6497 27.7891 18.7539ZM26.168 18.8906C26.168 18.8646 26.1615 18.8255 26.1484 18.7734C26.1484 18.7344 26.1484 18.7018 26.1484 18.6758C26.1484 17.8945 26.5781 17.3542 27.4375 17.0547C27.7891 16.9245 28.1667 16.8594 28.5703 16.8594C29.5078 16.8724 30.2305 17.1263 30.7383 17.6211C31.2721 18.1419 31.5391 18.819 31.5391 19.6523C31.5391 20.1471 31.4284 20.6549 31.207 21.1758C32.6914 20.8893 33.987 20.2969 35.0938 19.3984C35.1458 19.3594 35.2044 19.3398 35.2695 19.3398C35.543 19.3398 35.8164 19.5221 36.0898 19.8867C36.2201 20.056 36.2917 20.2057 36.3047 20.3359C36.2917 20.4141 36.2591 20.4727 36.207 20.5117C34.5924 21.8138 32.8997 22.4648 31.1289 22.4648C30.8815 22.4648 30.6992 22.4583 30.582 22.4453C29.4102 24.3464 28.0365 25.2969 26.4609 25.2969C25.7839 25.2969 25.2435 25.1536 24.8398 24.8672C24.8138 24.8281 24.7943 24.8021 24.7812 24.7891C24.1172 24.3073 23.7852 23.6888 23.7852 22.9336C23.7852 21.9049 24.319 20.8047 25.3867 19.6328C25.6471 19.3464 25.9076 19.099 26.168 18.8906ZM26.8906 20.4922C25.9922 21.4557 25.4323 22.3737 25.2109 23.2461C25.1849 23.3893 25.1654 23.5195 25.1523 23.6367C25.1393 23.8711 25.1393 24.0208 25.1523 24.0859C25.3346 24.1641 25.5234 24.2031 25.7188 24.2031C26.526 24.2031 27.4049 23.6758 28.3555 22.6211C28.5378 22.4128 28.707 22.2044 28.8633 21.9961C28.056 21.6185 27.3984 21.1172 26.8906 20.4922ZM48.8242 19.3398C48.8893 19.3008 48.9479 19.2812 49 19.2812C49.2995 19.2812 49.5924 19.4701 49.8789 19.8477C50.0091 20.0169 50.0742 20.1602 50.0742 20.2773C50.0612 20.3685 50.0286 20.4336 49.9766 20.4727C49.8464 20.5638 49.625 20.7135 49.3125 20.9219C47.5286 22.1198 46.1549 22.862 45.1914 23.1484C44.7487 23.2786 44.3451 23.3438 43.9805 23.3438C43.3034 23.3307 42.7435 23.1094 42.3008 22.6797C41.7148 22.0938 41.3828 21.0781 41.3047 19.6328C41.3047 19.5938 41.2917 19.3203 41.2656 18.8125C40.3411 19.3854 39.0911 20.8112 37.5156 23.0898C36.1484 25.056 35.3997 26.1302 35.2695 26.3125C35.0872 26.5469 34.9245 26.7422 34.7812 26.8984C34.651 26.9766 34.5208 27.0156 34.3906 27.0156C34 27.0156 33.6615 26.7943 33.375 26.3516C33.2318 26.1302 33.1602 25.9154 33.1602 25.707C33.1602 24.9909 33.7917 22.8099 35.0547 19.1641C36.3307 15.5182 37.6068 12.0482 38.8828 8.75391L40.7773 3.8125C40.8294 3.73438 40.9076 3.6888 41.0117 3.67578C41.2982 3.67578 41.6042 3.84505 41.9297 4.18359C42.138 4.41797 42.2161 4.61328 42.1641 4.76953L38.5312 14.4375C37.0729 18.3958 36.0117 21.4167 35.3477 23.5C35.4779 23.3177 35.6992 22.9987 36.0117 22.543C37.6263 20.1992 38.8047 18.6953 39.5469 18.0312C39.6641 17.9401 39.7747 17.8555 39.8789 17.7773C40.1393 17.582 40.3867 17.4844 40.6211 17.4844C40.7904 17.4974 40.9922 17.5625 41.2266 17.6797C42.0078 18.1224 42.4701 18.8255 42.6133 19.7891C42.6393 19.9583 42.6589 20.2188 42.6719 20.5703C42.737 21.3255 42.8411 21.8659 42.9844 22.1914H43.0625C43.9609 22.1914 45.8815 21.2409 48.8242 19.3398ZM50.0156 16.8008C50.0677 16.7357 50.1393 16.6966 50.2305 16.6836C50.5169 16.6836 50.8229 16.8594 51.1484 17.2109C51.3047 17.3932 51.3893 17.5495 51.4023 17.6797C51.4023 17.7188 51.3893 17.7578 51.3633 17.7969C51.3503 17.8229 50.6732 19.151 49.332 21.7812C51.8451 19.3464 53.5508 17.9401 54.4492 17.5625C54.5534 17.5234 54.6445 17.4909 54.7227 17.4648C54.8919 17.4258 55.0417 17.4062 55.1719 17.4062C55.7839 17.4193 56.2982 17.6732 56.7148 18.168C57.0534 18.5716 57.2227 19.2487 57.2227 20.1992C57.2227 20.4987 57.151 21.306 57.0078 22.6211C56.9948 22.7643 56.9883 22.8685 56.9883 22.9336C56.9883 23.0117 57.0013 23.0638 57.0273 23.0898C57.0534 23.1029 57.0729 23.1094 57.0859 23.1094C57.5417 23.1094 59.1497 22.0742 61.9102 20.0039C62.2747 19.7305 62.5091 19.5482 62.6133 19.457C62.6523 19.431 62.6979 19.418 62.75 19.418C62.9844 19.418 63.2318 19.6263 63.4922 20.043C63.6224 20.2643 63.6875 20.4531 63.6875 20.6094C63.6745 20.7005 63.6419 20.7786 63.5898 20.8438C62.2878 21.9115 61.3763 22.6146 60.8555 22.9531C59.6445 23.7344 58.6354 24.125 57.8281 24.125C57.3594 24.112 56.9492 23.9818 56.5977 23.7344C55.9857 23.2396 55.6797 22.4714 55.6797 21.4297C55.6797 21.1302 55.7057 20.681 55.7578 20.082C55.8099 19.5221 55.8359 19.1185 55.8359 18.8711V18.6562C55.0677 18.8516 53.5508 20.043 51.2852 22.2305C49.5143 23.9362 48.4922 24.9062 48.2188 25.1406C47.776 25.5052 47.4766 25.694 47.3203 25.707C46.5781 25.6419 46.1875 25.2904 46.1484 24.6523C46.1484 24.3789 47.4375 21.7617 50.0156 16.8008ZM60.2695 23.7148C60.2695 23.7279 60.25 23.7344 60.2109 23.7344L60.1523 23.7148C59.8398 23.7148 59.5273 23.526 59.2148 23.1484C59.0977 22.9792 59.0326 22.8359 59.0195 22.7188C59.0456 22.6146 59.0911 22.5495 59.1562 22.5234C59.1562 22.5234 59.2018 22.5104 59.293 22.4844C62.0534 21.7031 64.9115 21.0065 67.8672 20.3945C72.5807 11.9831 76.168 6.39062 78.6289 3.61719C77.9648 3.90365 77.2357 4.22917 76.4414 4.59375C75.6471 4.95833 75.0221 5.24479 74.5664 5.45312L73.8828 5.76562C73.8307 5.79167 73.7786 5.80469 73.7266 5.80469C73.4271 5.80469 73.1146 5.61589 72.7891 5.23828C72.6589 5.05599 72.5872 4.90625 72.5742 4.78906C72.5872 4.71094 72.6328 4.65234 72.7109 4.61328L77.0273 2.66016C79.6055 1.54036 81.1224 0.980469 81.5781 0.980469C81.9167 0.980469 82.2487 1.14323 82.5742 1.46875C82.7305 1.65104 82.8151 1.82031 82.8281 1.97656C82.8151 2.09375 82.7695 2.20443 82.6914 2.30859C82.5091 2.50391 82.1315 2.79688 81.5586 3.1875C79.3841 4.64583 75.6146 10.0951 70.25 19.5352C76.3698 11.2148 80.901 6.00651 83.8438 3.91016C84.1432 3.70182 84.4167 3.52604 84.6641 3.38281C85.1589 3.10938 85.6471 2.97266 86.1289 2.97266C87.0664 2.97266 87.7956 3.46094 88.3164 4.4375C88.4857 4.76302 88.6159 5.12109 88.707 5.51172C88.7852 5.85026 88.8242 6.3125 88.8242 6.89844C88.8242 9.26823 87.8477 13.2005 85.8945 18.6953C86.9753 18.7995 87.7695 19.1055 88.2773 19.6133C88.4076 19.7565 88.4792 19.8737 88.4922 19.9648C88.4661 20.056 88.3815 20.1081 88.2383 20.1211C88.1732 20.1211 88.1211 20.1146 88.082 20.1016C87.3789 19.9844 86.513 19.8932 85.4844 19.8281C85.4193 20.0104 85.263 20.4206 85.0156 21.0586C83.1797 25.9023 82.2617 28.819 82.2617 29.8086V29.9844C82.2227 30.1276 82.0924 30.2122 81.8711 30.2383C81.4674 30.2383 81.181 29.9974 81.0117 29.5156C80.9466 29.3073 80.9141 29.0729 80.9141 28.8125C80.9141 28.474 80.9857 28.0312 81.1289 27.4844C81.4284 26.3646 82.3138 23.793 83.7852 19.7695H83.6484C80.2109 19.7695 76.0508 20.2253 71.168 21.1367C70.6992 21.7747 70.224 22.4258 69.7422 23.0898C69.2734 23.7409 68.8307 24.3594 68.4141 24.9453C68.0104 25.5182 67.6068 26.0911 67.2031 26.6641C66.8125 27.237 66.4479 27.7643 66.1094 28.2461C65.7839 28.7148 65.4714 29.1641 65.1719 29.5938C64.8854 30.0234 64.6315 30.401 64.4102 30.7266C64.1888 31.0521 63.9935 31.332 63.8242 31.5664C63.668 31.8138 63.5443 32.0026 63.4531 32.1328L63.3359 32.3281C63.2839 32.3932 63.2122 32.4258 63.1211 32.4258C62.8216 32.4258 62.5156 32.25 62.2031 31.8984C62.0599 31.7292 61.9818 31.5794 61.9688 31.4492C61.9688 31.3841 61.9753 31.3385 61.9883 31.3125C62.0013 31.2995 62.0664 31.1693 62.1836 30.9219C63.8242 27.7969 65.4193 24.8281 66.9688 22.0156C66.2396 22.1849 65.5104 22.3607 64.7812 22.543C64.0521 22.7122 63.4271 22.8685 62.9062 23.0117C62.3854 23.1419 61.9232 23.2656 61.5195 23.3828C61.1029 23.487 60.7904 23.5651 60.582 23.6172L60.2695 23.7148ZM72.3398 19.5547C76.3763 18.8906 79.8594 18.5586 82.7891 18.5586C83.1276 18.5586 83.6029 18.5716 84.2148 18.5977C86.0768 13.4805 87.138 9.56771 87.3984 6.85938C87.4375 6.49479 87.457 6.16927 87.457 5.88281C87.444 4.94531 87.2747 4.32682 86.9492 4.02734C86.8841 3.97526 86.806 3.94922 86.7148 3.94922C85.6471 3.94922 82.5091 7.08724 77.3008 13.3633C74.9961 16.1367 73.3424 18.2005 72.3398 19.5547ZM97.9062 19.4375C97.9714 19.3984 98.0365 19.3789 98.1016 19.3789C98.375 19.3789 98.6484 19.5677 98.9219 19.9453C99.0651 20.1276 99.1367 20.2839 99.1367 20.4141C99.1237 20.5182 99.1042 20.5833 99.0781 20.6094C98.4401 21.0781 97.0339 22.543 94.8594 25.0039C92.6068 27.569 91.1224 29.151 90.4062 29.75C89.9635 30.1276 89.638 30.3229 89.4297 30.3359H89.293C88.1732 30.3099 87.6068 29.6003 87.5938 28.207C87.5938 25.7852 89.7812 19.2878 94.1562 8.71484C94.2865 8.3763 94.4492 7.97917 94.6445 7.52344C95.5039 5.46615 95.9922 4.26172 96.1094 3.91016C96.1615 3.81901 96.2331 3.77344 96.3242 3.77344C96.6237 3.77344 96.9297 3.9362 97.2422 4.26172C97.3984 4.44401 97.4831 4.60677 97.4961 4.75C97.4961 5.02344 97.1901 5.85026 96.5781 7.23047C96.3438 7.7513 96.1549 8.17448 96.0117 8.5C92.7305 16.4688 90.6276 22.0612 89.7031 25.2773C89.2474 26.8919 89.013 28.1029 89 28.9102C89.8984 28.3112 91.3438 26.8529 93.3359 24.5352C95.3932 22.1393 96.7083 20.6484 97.2812 20.0625C97.5026 19.8281 97.7109 19.6198 97.9062 19.4375ZM99.6445 16.4297C99.6966 16.3646 99.7617 16.332 99.8398 16.332C100.126 16.332 100.432 16.5078 100.758 16.8594C100.914 17.0417 100.999 17.1979 101.012 17.3281C101.012 17.3802 100.999 17.4258 100.973 17.4648C99.8529 19.0924 99.0911 20.5638 98.6875 21.8789C98.5443 22.3477 98.4727 22.7448 98.4727 23.0703C98.4727 23.2266 98.4792 23.3372 98.4922 23.4023C99.0781 23.194 99.9049 22.5365 100.973 21.4297C102.027 20.3359 103.167 18.9167 104.391 17.1719C104.495 17.0417 104.612 16.9766 104.742 16.9766C105.055 16.9766 105.348 17.1849 105.621 17.6016C105.725 17.7839 105.777 17.9271 105.777 18.0312C105.777 18.0703 105.764 18.1094 105.738 18.1484C105.009 20.4792 104.625 22.3021 104.586 23.6172C104.586 23.8516 104.605 24.0664 104.645 24.2617C105.66 24.1315 106.747 23.2005 107.906 21.4688C108.857 20.0495 109.475 18.7344 109.762 17.5234C109.775 17.4583 109.788 17.4062 109.801 17.3672C109.801 17.3542 109.801 17.3281 109.801 17.2891C109.814 17.25 109.82 17.2044 109.82 17.1523C109.833 17.1003 109.846 17.0417 109.859 16.9766C109.872 16.9115 109.879 16.8464 109.879 16.7812C109.892 16.7031 109.905 16.6315 109.918 16.5664C109.931 16.5013 109.938 16.4362 109.938 16.3711C109.951 16.306 109.964 16.2474 109.977 16.1953C109.99 16.1432 110.003 16.1042 110.016 16.0781V16.0195C110.068 15.9544 110.152 15.9219 110.27 15.9219C110.634 15.9219 110.934 16.0846 111.168 16.4102C111.298 16.6185 111.363 16.8398 111.363 17.0742C111.363 17.2174 111.337 17.4779 111.285 17.8555C111.22 18.4414 111.188 18.9036 111.188 19.2422C111.201 20.1016 111.363 20.6159 111.676 20.7852C111.91 20.8763 112.177 20.9219 112.477 20.9219C113.57 20.9219 115.087 20.4271 117.027 19.4375C117.066 19.4245 117.118 19.418 117.184 19.418C117.483 19.418 117.796 19.6003 118.121 19.9648C118.251 20.1471 118.323 20.2969 118.336 20.4141C118.323 20.5052 118.284 20.5703 118.219 20.6094C116.266 21.612 114.664 22.1133 113.414 22.1133C112.815 22.1133 112.307 22.0156 111.891 21.8203C111.266 21.5339 110.771 21.1302 110.406 20.6094C109.846 21.8203 109.091 22.9206 108.141 23.9102C107.138 24.9388 106.227 25.4531 105.406 25.4531C105.003 25.4401 104.612 25.2904 104.234 25.0039C103.57 24.457 103.238 23.6107 103.238 22.4648C103.238 22.1393 103.271 21.7617 103.336 21.332C101.708 23.2331 100.458 24.3203 99.5859 24.5938C99.4948 24.6198 99.3841 24.6328 99.2539 24.6328C99.1237 24.6328 98.987 24.6133 98.8438 24.5742C98.7005 24.5352 98.5703 24.4896 98.4531 24.4375C98.3359 24.3724 98.2318 24.3138 98.1406 24.2617C98.0625 24.1966 97.9974 24.1445 97.9453 24.1055C97.8932 24.0534 97.8737 24.0273 97.8867 24.0273C97.4049 23.5586 97.1641 22.9466 97.1641 22.1914C97.1641 20.707 97.9909 18.7865 99.6445 16.4297ZM118.297 16.7422C118.349 16.6641 118.421 16.6185 118.512 16.6055C118.798 16.6055 119.104 16.7812 119.43 17.1328C119.586 17.3151 119.671 17.4714 119.684 17.6016C119.684 17.6406 119.671 17.6797 119.645 17.7188C118.512 20.1146 117.887 21.9766 117.77 23.3047C117.757 23.4219 117.75 23.5326 117.75 23.6367C117.75 23.819 117.776 24.0078 117.828 24.2031H117.867C118.948 24.2031 120.549 23.1159 122.672 20.9414C123.219 20.3685 123.688 19.8477 124.078 19.3789C124.117 19.3268 124.169 19.3008 124.234 19.3008C124.456 19.3008 124.69 19.4961 124.938 19.8867C125.068 20.0951 125.133 20.2773 125.133 20.4336C125.12 20.4987 125.094 20.5703 125.055 20.6484C122.424 23.7734 120.309 25.362 118.707 25.4141C118.564 25.4141 118.382 25.388 118.16 25.3359C117.535 25.1536 117.053 24.7826 116.715 24.2227C116.493 23.8581 116.383 23.3893 116.383 22.8164C116.383 21.4362 117.021 19.4115 118.297 16.7422ZM120.465 15.8633C120.413 15.9284 120.341 15.9674 120.25 15.9805C119.964 15.9805 119.664 15.8112 119.352 15.4727C119.195 15.2773 119.111 15.1146 119.098 14.9844C119.098 14.9453 119.111 14.8997 119.137 14.8477L120.758 12.25C120.81 12.1849 120.888 12.1523 120.992 12.1523C121.292 12.1523 121.598 12.3281 121.91 12.6797C122.053 12.849 122.132 12.9987 122.145 13.1289C122.145 13.168 122.132 13.2135 122.105 13.2656L120.465 15.8633ZM125.211 16.8008C125.263 16.7357 125.335 16.6966 125.426 16.6836C125.712 16.6836 126.018 16.8594 126.344 17.2109C126.5 17.3932 126.585 17.5495 126.598 17.6797C126.598 17.7188 126.585 17.7578 126.559 17.7969C126.546 17.8229 125.868 19.151 124.527 21.7812C127.04 19.3464 128.746 17.9401 129.645 17.5625C129.749 17.5234 129.84 17.4909 129.918 17.4648C130.087 17.4258 130.237 17.4062 130.367 17.4062C130.979 17.4193 131.493 17.6732 131.91 18.168C132.249 18.5716 132.418 19.2487 132.418 20.1992C132.418 20.4987 132.346 21.306 132.203 22.6211C132.19 22.7643 132.184 22.8685 132.184 22.9336C132.184 23.0117 132.197 23.0638 132.223 23.0898C132.249 23.1029 132.268 23.1094 132.281 23.1094C132.737 23.1094 134.345 22.0742 137.105 20.0039C137.47 19.7305 137.704 19.5482 137.809 19.457C137.848 19.431 137.893 19.418 137.945 19.418C138.18 19.418 138.427 19.6263 138.688 20.043C138.818 20.2643 138.883 20.4531 138.883 20.6094C138.87 20.7005 138.837 20.7786 138.785 20.8438C137.483 21.9115 136.572 22.6146 136.051 22.9531C134.84 23.7344 133.831 24.125 133.023 24.125C132.555 24.112 132.145 23.9818 131.793 23.7344C131.181 23.2396 130.875 22.4714 130.875 21.4297C130.875 21.1302 130.901 20.681 130.953 20.082C131.005 19.5221 131.031 19.1185 131.031 18.8711V18.6562C130.263 18.8516 128.746 20.043 126.48 22.2305C124.71 23.9362 123.688 24.9062 123.414 25.1406C122.971 25.5052 122.672 25.694 122.516 25.707C121.773 25.6419 121.383 25.2904 121.344 24.6523C121.344 24.3789 122.633 21.7617 125.211 16.8008Z" fill="#211F1C"/>
</svg>
